<?xml version="1.0" encoding="UTF-8"?>
<svg version="1.1" xmlns="http://www.w3.org/2000/svg" width="60" height="60">
<path d="M0 0 C8.6625 -0.2475 8.6625 -0.2475 17.5 -0.5 C19.30662109 -0.57283203 21.11324219 -0.64566406 22.97460938 -0.72070312 C36.08659632 -1.03755945 36.08659632 -1.03755945 41.125 3.40625 C44.74354985 8.06694221 44.95651285 12.28481024 44.5 18 C44.46390625 18.87011719 44.4278125 19.74023438 44.390625 20.63671875 C44.29730471 22.75975531 44.15383549 24.88048884 44 27 C45.32 26.67 46.64 26.34 48 26 C48 24.68 48 23.36 48 22 C47.34 22 46.68 22 46 22 C46 20.02 46 18.04 46 16 C47.98 16 49.96 16 52 16 C52 19.66666667 52 23.33333333 52 27 C52.66 27 53.32 27 54 27 C54.66 25.35 55.32 23.7 56 22 C55.34 22 54.68 22 54 22 C54 20.02 54 18.04 54 16 C55.98 16 57.96 16 60 16 C60 17.98 60 19.96 60 22 C59.34 22 58.68 22 58 22 C58 22.763125 58 23.52625 58 24.3125 C58 26.20833333 58 28.10416667 58 30 C58.66 30.99 59.32 31.98 60 33 C60.56816895 38.79532324 59.2085101 42.75478851 57 48 C57.33 48.33 57.66 48.66 58 49 C58.04063832 50.66617115 58.042721 52.33388095 58 54 C58.66 54 59.32 54 60 54 C60 55.98 60 57.96 60 60 C58.02 60 56.04 60 54 60 C54 58.02 54 56.04 54 54 C54.66 54 55.32 54 56 54 C55.34 52.35 54.68 50.7 54 49 C53.34 49 52.68 49 52 49 C51.40929986 50.94603274 51.40929986 50.94603274 51 53 C51.33 53.33 51.66 53.66 52 54 C52.04080783 55.99958364 52.04254356 58.00045254 52 60 C50.02 60 48.04 60 46 60 C46 58.02 46 56.04 46 54 C46.66 54 47.32 54 48 54 C48 52.68 48 51.36 48 50 C46.68 49.67 45.36 49.34 44 49 C44 52.63 44 56.26 44 60 C29.48 60 14.96 60 0 60 C0 40.2 0 20.4 0 0 Z M51 37 C51 37.66 51 38.32 51 39 C51.66 39 52.32 39 53 39 C53 38.34 53 37.68 53 37 C52.34 37 51.68 37 51 37 Z " fill="#BBBDC4" transform="translate(0,0)"/>
<path d="M0 0 C8.6625 -0.2475 8.6625 -0.2475 17.5 -0.5 C19.30662109 -0.57283203 21.11324219 -0.64566406 22.97460938 -0.72070312 C36.08659632 -1.03755945 36.08659632 -1.03755945 41.125 3.40625 C44.74354985 8.06694221 44.95651285 12.28481024 44.5 18 C44.46390625 18.87011719 44.4278125 19.74023438 44.390625 20.63671875 C44.29730471 22.75975531 44.15383549 24.88048884 44 27 C45.32 26.67 46.64 26.34 48 26 C48 24.68 48 23.36 48 22 C47.34 22 46.68 22 46 22 C46 20.02 46 18.04 46 16 C47.98 16 49.96 16 52 16 C52 19.66666667 52 23.33333333 52 27 C52.66 27 53.32 27 54 27 C54.66 25.35 55.32 23.7 56 22 C55.34 22 54.68 22 54 22 C54 20.02 54 18.04 54 16 C55.98 16 57.96 16 60 16 C60 17.98 60 19.96 60 22 C59.34 22 58.68 22 58 22 C58 22.763125 58 23.52625 58 24.3125 C58 26.20833333 58 28.10416667 58 30 C58.66 30.99 59.32 31.98 60 33 C60.56816895 38.79532324 59.2085101 42.75478851 57 48 C57.33 48.33 57.66 48.66 58 49 C58.04063832 50.66617115 58.042721 52.33388095 58 54 C58.66 54 59.32 54 60 54 C60 55.98 60 57.96 60 60 C58.02 60 56.04 60 54 60 C54 58.02 54 56.04 54 54 C54.66 54 55.32 54 56 54 C55.34 52.35 54.68 50.7 54 49 C53.34 49 52.68 49 52 49 C51.40929986 50.94603274 51.40929986 50.94603274 51 53 C51.33 53.33 51.66 53.66 52 54 C52.04080783 55.99958364 52.04254356 58.00045254 52 60 C50.02 60 48.04 60 46 60 C46 58.02 46 56.04 46 54 C46.66 54 47.32 54 48 54 C48 52.68 48 51.36 48 50 C46.68 49.67 45.36 49.34 44 49 C44 52.63 44 56.26 44 60 C29.48 60 14.96 60 0 60 C0 40.2 0 20.4 0 0 Z M2 2 C2 20.48 2 38.96 2 58 C15.2 58 28.4 58 42 58 C42 54.04 42 50.08 42 46 C36.24958567 43.59528128 31.21167506 42.36858107 25 42 C23.90751953 41.90332031 23.90751953 41.90332031 22.79296875 41.8046875 C20.42186614 41.62354567 20.42186614 41.62354567 17 42 C15.64691687 43.31328657 14.31129922 44.64499081 13 46 C9.875 46 9.875 46 7 45 C4.94782381 42.57470087 4.96551421 40.67813262 4.625 37.5 C5 34 5 34 6.625 31.5 C9 30 9 30 12.1875 30.125 C13.115625 30.41375 14.04375 30.7025 15 31 C15.33 31.66 15.66 32.32 16 33 C18.83392926 33.08174796 21.66544819 33.14084985 24.5 33.1875 C25.29148437 33.21263672 26.08296875 33.23777344 26.8984375 33.26367188 C27.68476563 33.27333984 28.47109375 33.28300781 29.28125 33.29296875 C30.34956055 33.31653442 30.34956055 33.31653442 31.43945312 33.34057617 C35.00846411 32.96341274 35.00846411 32.96341274 42 30 C42 23.73 42 17.46 42 11 C39.36 10.67 36.72 10.34 34 10 C33.67 7.36 33.34 4.72 33 2 C22.77 2 12.54 2 2 2 Z M51 37 C51 37.66 51 38.32 51 39 C51.66 39 52.32 39 53 39 C53 38.34 53 37.68 53 37 C52.34 37 51.68 37 51 37 Z " fill="#3B3B39" transform="translate(0,0)"/>
<path d="M0 0 C3.29278354 1.00907883 4.34980709 2.60888734 5.9375 5.59375 C6.52329151 8.29740314 6.74931354 10.81799968 6.9375 13.59375 C-0.6323324 18.43844274 -0.6323324 18.43844274 -6.0625 17.59375 C-7.41585895 16.62102325 -8.74912604 15.6198234 -10.0625 14.59375 C-13.21368325 13.87329633 -13.21368325 13.87329633 -16.0625 13.59375 C-16.0625 12.27375 -16.0625 10.95375 -16.0625 9.59375 C-16.7225 9.59375 -17.3825 9.59375 -18.0625 9.59375 C-18.0625 10.25375 -18.0625 10.91375 -18.0625 11.59375 C-25.3225 11.59375 -32.5825 11.59375 -40.0625 11.59375 C-40.7225 10.27375 -41.3825 8.95375 -42.0625 7.59375 C-40.0625 5.59375 -40.0625 5.59375 -37.81591797 5.36669922 C-36.90471191 5.37717285 -35.99350586 5.38764648 -35.0546875 5.3984375 C-33.57548828 5.40810547 -33.57548828 5.40810547 -32.06640625 5.41796875 C-30.51759766 5.44310547 -30.51759766 5.44310547 -28.9375 5.46875 C-27.89722656 5.47777344 -26.85695313 5.48679687 -25.78515625 5.49609375 C-23.21070908 5.51971253 -20.63671788 5.55264851 -18.0625 5.59375 C-18.0625 6.25375 -18.0625 6.91375 -18.0625 7.59375 C-17.4025 7.59375 -16.7425 7.59375 -16.0625 7.59375 C-16.0625 6.27375 -16.0625 4.95375 -16.0625 3.59375 C-14.969375 3.305 -13.87625 3.01625 -12.75 2.71875 C-2.50847571 -0.40578284 -2.50847571 -0.40578284 0 0 Z M-1.0625 7.59375 C-1.0625 8.25375 -1.0625 8.91375 -1.0625 9.59375 C-0.4025 9.59375 0.2575 9.59375 0.9375 9.59375 C0.9375 8.93375 0.9375 8.27375 0.9375 7.59375 C0.2775 7.59375 -0.3825 7.59375 -1.0625 7.59375 Z " fill="#25B698" transform="translate(52.0625,29.40625)"/>
<path d="M0 0 C1.3303125 0.4021875 1.3303125 0.4021875 2.6875 0.8125 C2.6875 3.8125 2.6875 3.8125 0.6875 6 C0.0275 6.598125 -0.6325 7.19625 -1.3125 7.8125 C-0.9825 8.8025 -0.6525 9.7925 -0.3125 10.8125 C0.94046875 10.80089844 2.1934375 10.78929687 3.484375 10.77734375 C5.13541517 10.76796284 6.78645696 10.75886296 8.4375 10.75 C9.2625 10.74162109 10.0875 10.73324219 10.9375 10.72460938 C11.73671875 10.72138672 12.5359375 10.71816406 13.359375 10.71484375 C14.45910645 10.70698853 14.45910645 10.70698853 15.58105469 10.69897461 C17.7336849 10.8149891 19.6189135 11.22176729 21.6875 11.8125 C21.6875 11.1525 21.6875 10.4925 21.6875 9.8125 C22.3475 9.8125 23.0075 9.8125 23.6875 9.8125 C23.6875 11.1325 23.6875 12.4525 23.6875 13.8125 C25.6675 13.8125 27.6475 13.8125 29.6875 13.8125 C29.6875 14.8025 29.6875 15.7925 29.6875 16.8125 C26.126889 16.37650682 22.85389893 15.86689965 19.4375 14.75 C14.49000199 13.5131255 9.75710587 13.10793816 4.6875 13.8125 C2.39460528 15.77059523 2.39460528 15.77059523 0.6875 17.8125 C-2.375 17.875 -2.375 17.875 -5.3125 16.8125 C-7.80083082 13.99239174 -8.28050763 12.0364466 -8.8125 8.3125 C-8.3125 4.8125 -8.3125 4.8125 -6.1875 1.8125 C-3.3125 -0.1875 -3.3125 -0.1875 0 0 Z " fill="#3E4040" transform="translate(12.3125,29.1875)"/>
<path d="M0 0 C0.91120605 0.01047363 1.82241211 0.02094727 2.76123047 0.03173828 C3.74736328 0.03818359 4.73349609 0.04462891 5.74951172 0.05126953 C7.29832031 0.07640625 7.29832031 0.07640625 8.87841797 0.10205078 C9.91869141 0.11107422 10.95896484 0.12009766 12.03076172 0.12939453 C14.60520889 0.15301331 17.17920009 0.18594929 19.75341797 0.22705078 C20.87841797 3.97705078 20.87841797 3.97705078 19.75341797 6.22705078 C12.49341797 6.22705078 5.23341797 6.22705078 -2.24658203 6.22705078 C-2.90658203 4.90705078 -3.56658203 3.58705078 -4.24658203 2.22705078 C-2.24658203 0.22705078 -2.24658203 0.22705078 0 0 Z " fill="#A9AEB7" transform="translate(14.24658203125,34.77294921875)"/>
<path d="M0 0 C1.3303125 0.4021875 1.3303125 0.4021875 2.6875 0.8125 C2.6875 1.8025 2.6875 2.7925 2.6875 3.8125 C1.883125 4.06 1.07875 4.3075 0.25 4.5625 C-2.42794473 5.54203272 -2.42794473 5.54203272 -3.25 7.75 C-3.52146722 10.12700092 -3.52146722 10.12700092 -1.3125 12.8125 C-0.3225 13.4725 0.6675 14.1325 1.6875 14.8125 C-0.6225 15.4725 -2.9325 16.1325 -5.3125 16.8125 C-8.28106976 12.73071657 -9.02979245 9.83354714 -8.3125 4.8125 C-5.68245739 1.09949867 -4.63961222 -0.26261956 0 0 Z " fill="#474849" transform="translate(12.3125,29.1875)"/>
<path d="M0 0 C1.65 0.33 3.3 0.66 5 1 C3.35 2.65 1.7 4.3 0 6 C1.24976756 9.65316671 1.67098753 10.78065836 5 13 C3.35 13.33 1.7 13.66 0 14 C-2.20409407 11.61223142 -2.96644557 10.26843543 -3.375 7 C-2.96644557 3.73156457 -2.20409407 2.38776858 0 0 Z " fill="#878D97" transform="translate(9,31)"/>
<path d="M0 0 C2.625 0.375 2.625 0.375 5 1 C5.625 3.375 5.625 3.375 6 6 C5.34 6.66 4.68 7.32 4 8 C1.375 7.625 1.375 7.625 -1 7 C-1.625 4.625 -1.625 4.625 -2 2 C-1.34 1.34 -0.68 0.68 0 0 Z M1 3 C1 3.66 1 4.32 1 5 C1.66 5 2.32 5 3 5 C3 4.34 3 3.68 3 3 C2.34 3 1.68 3 1 3 Z " fill="#353F3D" transform="translate(50,34)"/>
<path d="M0 0 C3.125 -0.1875 3.125 -0.1875 6 0 C6 0.99 6 1.98 6 3 C3.36 3 0.72 3 -2 3 C-1.34 2.01 -0.68 1.02 0 0 Z " fill="#474748" transform="translate(22,40)"/>
</svg>
